HIERARCHY
ROOT Hips
{
	OFFSET 0.000000 0.000000 0.000000
	CHANNELS 6 Xposition Yposition Zposition Zrotation Yrotation Xrotation 
	JOINT LHipJoint
	{
		OFFSET 0.000000 0.000000 0.000000
		CHANNELS 3 Zrotation Yrotation Xrotation
		JOINT LeftUpLeg
		{
			OFFSET 1.363060 -1.794630 0.839290
			CHANNELS 3 Zrotation Yrotation Xrotation
			JOINT LeftLeg
			{
				OFFSET 2.448110 -6.726130 0.000000
				CHANNELS 3 Zrotation Yrotation Xrotation
				JOINT LeftFoot
				{
					OFFSET 2.562200 -7.039590 0.000000
					CHANNELS 3 Zrotation Yrotation Xrotation
					JOINT LeftToeBase
					{
						OFFSET 0.157640 -0.433110 2.322550
						CHANNELS 3 Zrotation Yrotation Xrotation
						End Site
						{
							OFFSET 0.000000 0.000000 0.000000
						}
					}
				}
			}
		}
	}
	JOINT RHipJoint
	{
		OFFSET 0.000000 0.000000 0.000000
		CHANNELS 3 Zrotation Yrotation Xrotation
		JOINT RightUpLeg
		{
			OFFSET -1.305520 -1.794630 0.839290
			CHANNELS 3 Zrotation Yrotation Xrotation
			JOINT RightLeg
			{
				OFFSET -2.542530 -6.985550 0.000000
				CHANNELS 3 Zrotation Yrotation Xrotation
				JOINT RightFoot
				{
					OFFSET -2.568260 -7.056230 0.000000
					CHANNELS 3 Zrotation Yrotation Xrotation
					JOINT RightToeBase
					{
						OFFSET -0.164730 -0.452590 2.363150
						CHANNELS 3 Zrotation Yrotation Xrotation
						End Site
						{
							OFFSET 0.000000 0.000000 0.000000
						}
					}
				}
			}
		}
	}
}
MOTION
Frames: 33
Frame Time: 0.008333
2.978259 17.246116 2.554135 106.645763 -89.472049 -84.824413 -13.406449 5.768924 3.263830 -5.597683 7.884719 -1.714692 -0.833810 0.509887 11.081097 0.443668 -3.883643 24.197168 -2.076700 -0.000000 -75.374901 6.739052 -3.140224 3.898629 18.653960 -3.665683 -41.920018 5.385030 -0.139921 14.615600 1.641723 9.437823 -0.592549 0.917300 -0.000000 -62.714000
2.724120 17.169783 2.524779 88.610650 -89.397118 -67.013501 -13.147290 5.774290 3.123216 -5.557991 8.463299 -1.122387 -0.767786 0.535952 11.900982 0.462871 -4.221040 25.034427 -2.303800 0.000000 -74.818200 6.944534 -3.216463 4.111393 18.243120 -2.807530 -42.261978 5.160479 -0.358571 16.190146 1.410313 8.478808 -1.915099 0.672799 -0.000000 -58.922899
2.478232 17.086968 2.489794 -157.750985 -87.914149 179.159476 -12.083071 6.263769 2.731031 -5.690259 9.936273 -0.400674 -0.993975 0.727849 12.396084 0.567250 -4.401501 26.006675 -2.527000 -0.000000 -73.682700 8.069976 -2.476847 4.284520 17.712728 -0.621289 -42.348755 4.649552 -0.579632 18.950126 1.127341 7.418582 -3.548259 0.421000 -0.000000 -54.331400
2.229845 17.005985 2.460389 -170.046015 -87.128534 -168.750153 -12.244805 6.543941 2.641698 -5.824715 10.558850 -0.127098 -0.999261 0.859351 13.525505 0.675628 -4.698820 26.911974 -2.809300 0.000000 -72.311700 8.031868 -2.189418 4.274028 16.998118 0.497034 -42.748890 4.237139 -0.823359 22.332312 0.856748 6.535915 -5.597721 0.218700 -0.000001 -49.055200
1.985047 16.925679 2.430436 -178.343077 -86.591430 -160.725901 -12.430794 6.713635 2.536102 -5.860653 11.135868 0.088517 -0.952573 0.966917 14.917799 0.774519 -5.024831 27.863357 -3.108900 -0.000000 -70.470099 7.962426 -1.982546 4.251627 16.196868 1.529413 -43.103157 3.799402 -1.106049 26.079978 0.552185 5.644452 -7.892292 0.077000 -0.000000 -43.245100
1.744022 16.848600 2.399889 175.882642 -86.227481 -155.287782 -12.574872 6.809359 2.407050 -5.775551 11.683612 0.242856 -0.874985 1.062173 16.533679 0.873441 -5.308349 28.840429 -3.392600 0.000000 -68.339200 7.935414 -1.805002 4.202528 15.414508 2.435282 -43.278940 3.371830 -1.382198 29.870435 0.237703 4.777544 -10.260399 0.005000 -0.000000 -37.347900
1.506314 16.777570 2.369411 172.145179 -86.002238 -151.927827 -12.676936 6.852278 2.252343 -5.541549 12.229767 0.288203 -0.780757 1.150881 18.359367 0.977219 -5.491359 29.782431 -3.625100 -0.000000 -65.865000 7.952416 -1.647469 4.131025 14.745575 3.213692 -43.180207 2.990108 -1.616136 33.378585 -0.069837 3.930174 -12.549281 -0.000499 0.000000 -31.940000
1.270963 16.715180 2.339290 169.892786 -85.894179 -150.066073 -12.755509 6.855200 2.079305 -5.168024 12.772223 0.184394 -0.679113 1.234737 20.363428 1.088176 -5.484367 30.635001 -3.748000 -0.000000 -63.153600 7.991856 -1.516352 4.040935 14.244399 3.849101 -42.774300 2.676782 -1.791986 36.384456 -0.359084 3.110871 -14.666178 0.052800 0.000000 -27.515600
1.037420 16.663512 2.309448 168.680254 -85.891274 -149.239452 -12.823061 6.823356 1.897952 -4.683351 13.291348 -0.093017 -0.575901 1.314062 22.505873 1.206192 -5.192898 31.346584 -3.695500 0.000000 -60.421500 8.033450 -1.419779 3.936079 13.931170 4.327088 -42.067896 2.440588 -1.906926 38.762812 -0.626686 2.327216 -16.575016 0.154600 0.000000 -24.315000
0.804716 16.623984 2.279533 168.189568 -85.986582 -149.108762 -12.884760 6.760014 1.720247 -4.124112 13.763345 -0.564606 -0.475620 1.389293 24.751020 1.329101 -4.545685 31.853995 -3.413399 -0.000000 -57.795700 8.063173 -1.362348 3.823906 13.800247 4.645801 -41.092192 2.280376 -1.962843 40.454819 -0.875218 1.578831 -18.271144 0.295600 -0.000001 -22.347900
0.571927 16.597154 2.248717 167.861727 -86.161338 -149.099161 -12.949003 6.669562 1.559588 -3.547142 14.159938 -1.239900 -0.381331 1.461656 27.061689 1.454054 -3.500730 32.092537 -2.868600 0.000000 -55.346201 8.067249 -1.343429 3.710308 13.814453 4.803950 -39.893127 2.187747 -1.962696 41.460062 -1.107620 0.870393 -19.761679 0.466400 0.000000 -21.472300
0.338445 16.583010 2.216142 166.866575 -86.385674 -148.375814 -13.034537 6.556287 1.426131 -3.012483 14.459207 -2.108753 -0.293760 1.532666 29.395709 1.578817 -2.060726 32.011224 -2.064900 -0.000000 -53.161200 8.026116 -1.361098 3.596687 13.921488 4.803564 -38.508660 2.151043 -1.908957 41.813325 -1.325284 0.210816 -21.052324 0.656700 -0.000001 -21.440200
0.103776 16.580987 2.181113 163.524554 -86.614856 -145.262644 -13.193663 6.417237 1.329110 -2.579423 14.646356 -3.149792 -0.207407 1.599916 31.710909 1.701630 -0.277591 31.573873 -1.047500 -0.000000 -51.290600 7.892266 -1.426046 3.482276 14.057723 4.649945 -36.971474 2.158192 -1.805138 41.570056 -1.528211 -0.390339 -22.139943 0.854900 0.000000 -21.958400
-0.132527 16.590002 2.142724 151.327443 -86.809492 -133.273538 -13.597223 6.167846 1.287168 -2.346471 14.672198 -4.317910 -0.068182 1.620868 33.983475 1.816979 1.758745 30.765173 0.107300 -0.000001 -49.685400 7.500242 -1.660235 3.373699 14.090663 4.288579 -35.349604 2.212668 -1.687273 40.806040 -1.716822 -0.922902 -23.034074 1.047101 0.000000 -22.722200
-0.370612 16.608737 2.100165 107.110826 -87.476267 -89.314608 -13.845632 5.329588 1.270318 -2.117976 14.251225 -5.449744 0.368056 1.374636 36.348682 1.882122 3.896119 29.580895 1.305300 0.000000 -48.218400 7.096924 -2.542436 3.427749 14.057160 3.455625 -33.848005 2.448340 -1.822164 39.409085 -1.891517 -1.513660 -23.787395 1.216300 -0.000000 -23.450400
-0.610553 16.636004 2.054217 58.720935 -88.310398 -41.022222 -12.757553 4.914219 1.155985 -1.597122 13.878067 -6.804645 0.517642 1.331398 38.605763 1.946286 6.043395 28.017126 2.439299 0.000000 -47.095700 7.962955 -2.743555 3.530317 14.540773 2.930106 -32.136531 2.628634 -1.808896 37.548617 -2.008259 -2.086144 -24.171401 1.357200 0.000001 -23.978700
-0.856506 16.671888 2.010428 21.927139 -88.937985 -4.025178 -12.057295 5.373943 1.346831 -1.248278 13.020542 -8.927225 0.254070 1.704424 40.843572 2.074295 8.133350 26.023126 3.385701 0.000000 -45.932800 8.621712 -2.080357 3.294471 15.305421 2.061134 -30.234237 2.609783 -1.307194 35.536512 -2.082364 -2.359398 -24.127799 1.467100 0.000000 -24.108400
-1.099753 16.711745 1.956664 25.710308 -88.231591 -7.801608 -11.959387 5.162332 1.376677 -1.550962 12.593002 -10.495885 0.325113 1.732110 42.675738 2.155931 10.091828 23.974644 4.189501 0.000000 -44.721200 8.668332 -2.210911 3.281537 15.178404 1.496002 -28.464987 2.673976 -1.097503 33.510553 -2.126123 -2.622372 -23.965373 1.513000 -0.000000 -24.061700
-1.343914 16.756479 1.899949 30.287434 -87.502435 -12.324611 -11.862336 4.947808 1.424834 -2.057907 12.080531 -12.107117 0.388081 1.746712 44.333265 2.233731 11.864147 21.820431 4.792300 -0.000000 -43.798600 8.730789 -2.342030 3.282075 14.908447 0.922830 -26.753395 2.715732 -0.891004 31.440206 -2.128411 -2.810937 -23.536300 1.506301 -0.000000 -23.825500
-1.588474 16.805320 1.841494 35.224033 -86.803789 -17.154250 -11.770722 4.745184 1.483907 -2.749902 11.525815 -13.763934 0.431932 1.758237 45.817366 2.305208 13.404874 19.575014 5.176600 0.000000 -42.616500 8.808558 -2.458952 3.292710 14.509466 0.378363 -25.124426 2.727927 -0.691054 29.406409 -2.092602 -2.934807 -22.851353 1.450800 -0.000000 -23.535700
-1.832642 16.857823 1.782601 40.366094 -86.167328 -22.138717 -11.681124 4.557912 1.550272 -3.602193 10.941158 -15.446161 0.454309 1.768714 47.095128 2.376615 14.738133 17.382050 5.388000 0.000000 -41.862200 8.903919 -2.556469 3.306709 14.002405 -0.121703 -23.593272 2.710158 -0.504393 27.466606 -2.022112 -2.997982 -21.928517 1.351400 0.000000 -23.344600
-2.075619 16.913541 1.724503 45.673107 -85.609878 -27.244955 -11.588226 4.387207 1.614676 -4.583075 10.358150 -17.147717 0.452490 1.782853 48.174507 2.442886 15.843111 15.215961 5.429700 0.000001 -40.943600 9.017989 -2.635754 3.319332 13.410982 -0.574175 -22.169766 2.666170 -0.337330 25.655429 -1.920664 -3.000887 -20.789135 1.214100 0.000000 -23.421600
-2.316798 16.972276 1.668493 51.098081 -85.144377 -32.434028 -11.488462 4.228918 1.672978 -5.651258 9.781254 -18.844343 0.429471 1.799140 49.025501 2.507719 16.752882 13.188715 5.357899 0.000000 -40.452200 9.148055 -2.700687 3.323906 12.767959 -0.978074 -20.844816 2.602379 -0.193411 23.974231 -1.792732 -2.947252 -19.448033 1.046300 -0.000000 -23.919000
-2.555531 17.033703 1.615504 56.664142 -84.771302 -37.742290 -11.380323 4.079280 1.718067 -6.767227 9.225874 -20.522523 0.385969 1.818335 49.650594 2.565428 17.451977 11.267712 5.180400 -0.000000 -39.945500 9.289275 -2.757000 3.315667 12.100733 -1.338278 -19.605593 2.525781 -0.074509 22.409707 -1.642350 -2.837899 -17.917701 0.855500 -0.000000 -24.967700
-2.791481 17.097436 1.566050 62.440020 -84.481598 -43.248884 -11.263627 3.934216 1.748393 -7.899235 8.686660 -22.161417 0.325067 1.837790 50.032216 2.614883 17.954183 9.498393 4.933900 -0.000000 -39.730500 9.437021 -2.809117 3.289704 11.427855 -1.663240 -18.436142 2.442414 0.019250 20.938764 -1.472778 -2.670791 -16.204977 0.649500 -0.000000 -26.658700
-3.024583 17.162885 1.520304 68.469636 -84.260211 -49.005824 -11.138501 3.791436 1.763607 -9.017237 8.157550 -23.747278 0.248109 1.855820 50.165582 2.651590 18.252740 7.877325 4.635000 0.000000 -39.732000 9.587409 -2.860258 3.243730 10.764183 -1.957293 -17.320625 2.356798 0.089067 19.535464 -1.287840 -2.445954 -14.314965 0.437300 -0.000000 -29.020000
-3.255194 17.229204 1.478155 74.759221 -84.087179 -55.021250 -11.004749 3.650144 1.766372 -10.094540 7.627999 -25.272236 0.155588 1.870604 50.053159 2.670352 18.335159 6.387676 4.293800 -0.000000 -39.783501 9.738166 -2.912627 3.178855 10.120717 -2.219369 -16.248210 2.271883 0.136885 18.178108 -1.092249 -2.165624 -12.256275 0.229600 0.000001 -31.992100
-3.483768 17.295417 1.439118 81.266954 -83.937449 -61.253517 -10.860766 3.510333 1.762669 -11.112656 7.079000 -26.731135 0.048635 1.879589 49.696577 2.667897 18.201840 5.037938 3.929800 0.000000 -39.950300 9.889975 -2.966677 3.097322 9.501438 -2.449483 -15.215682 2.189095 0.164264 16.857196 -0.890820 -1.830091 -10.043512 0.038000 -0.000000 -35.436600
-3.710989 17.360366 1.402609 87.861838 -83.788597 -67.568488 -10.704879 3.372186 1.759955 -12.054982 6.493245 -28.127366 -0.072037 1.880554 49.109139 2.641077 17.852110 3.819705 3.555100 -0.000000 -40.172700 10.044147 -3.022805 3.004169 8.910590 -2.643654 -14.227121 2.109001 0.172673 15.575528 -0.689615 -1.442980 -7.702572 -0.124600 -0.000000 -39.132800
-3.937813 17.422861 1.367995 94.348059 -83.623421 -73.763525 -10.535797 3.236154 1.766641 -12.909550 5.856734 -29.470239 -0.206292 1.871539 48.312201 2.587701 17.288685 2.710719 3.176300 0.000000 -40.302100 10.202136 -3.081709 2.906177 8.351744 -2.797731 -13.292589 2.031419 0.163505 14.347282 -0.495212 -1.010566 -5.268192 -0.246200 0.000000 -42.813900
-4.165091 17.481700 1.334621 100.498818 -83.432197 -79.607167 -10.353044 3.102254 1.791565 -13.669698 5.157149 -30.770742 -0.353179 1.850557 47.325533 2.508560 16.532924 1.708494 2.807100 0.000001 -40.433200 10.364930 -3.143761 2.809207 7.827457 -2.913140 -12.426152 1.955592 0.137889 13.196420 -0.314001 -0.541384 -2.780325 -0.316800 0.000000 -46.243700
-4.393942 17.535807 1.302023 106.106504 -83.215833 -84.884494 -10.157680 2.971092 1.842848 -14.332759 4.390867 -32.042802 -0.512934 1.816255 46.170448 2.405514 15.608855 0.793927 2.453700 0.000001 -40.561300 10.531891 -3.209972 2.718946 7.341456 -2.995768 -11.641590 1.880584 0.097672 12.148579 -0.152103 -0.049433 -0.281311 -0.330600 0.000000 -49.230700
-4.619629 17.586292 1.263936 117.718702 -82.621627 -96.288248 -9.915835 2.892506 1.664083 -15.226622 4.579788 -32.991295 -0.750480 1.775203 44.599444 2.259928 14.487924 -0.089449 2.094700 0.000000 -40.735200 10.751079 -3.259879 2.749706 6.496478 -2.250380 -10.804887 1.736651 0.004979 11.461168 -0.015795 0.501398 2.102590 -0.270900 -0.000000 -51.705400
